# xmcd
#
# Track frame offsets: 
#        150
#        37330
#        48177
#        88842
#        115557
#        124390
#        149191
#        193229
#        225231
#        250872
#        277015
#
# Disc length: 3897 seconds
#
# Revision: 0
# Processed by: cddbd v1.4PL0 Copyright (c) Steve Scherf et al.
# Submitted via: ExactAudioCopy v0.90b3
#
DISCID=a60f370b
DTITLE=Johnny Winter Muddy Waters - 03.06.77 Tower Theater - Philadelp
DTITLE=hia, PA
DYEAR=1977
DGENRE=Blues
TTITLE0=Hideaway
TTITLE1=Cotton Jam
TTITLE2=Last Night
TTITLE3=See See Baby
TTITLE4=Rocket 88
TTITLE5=How Long?
TTITLE6=Slow Blues
TTITLE7=I Done Got Over
TTITLE8=Crosscut Saw
TTITLE9=Talk To your Daughter
TTITLE10=Band Intros
EXTD=
EXTT0=
EXTT1=
EXTT2=
EXTT3=
EXTT4=
EXTT5=
EXTT6=
EXTT7=
EXTT8=
EXTT9=
EXTT10=
PLAYORDER=
